<?xml version="1.0" standalone="no"?>
<!DOCTYPE svg PUBLIC "-//W3C//DTD SVG 20010904//EN"
 "http://www.w3.org/TR/2001/REC-SVG-20010904/DTD/svg10.dtd">
<svg version="1.0" xmlns="http://www.w3.org/2000/svg"
 width="1000.000000pt" height="1000.000000pt" viewBox="0 0 1000.000000 1000.000000"
 preserveAspectRatio="xMidYMid meet">

<g transform="translate(0.000000,1000.000000) scale(0.100000,-0.100000)"
fill="#000000" stroke="none">
<path d="M1980 5630 l0 -410 -75 0 -74 0 -92 116 c-128 160 -115 155 -397 157
-287 2 -271 10 -365 -163 -75 -139 -80 -170 -35 -203 49 -37 75 -18 136 101
l53 102 79 0 80 0 -21 -52 c-11 -29 -38 -96 -59 -148 -36 -88 -40 -108 -55
-275 -9 -99 -18 -186 -20 -192 -3 -10 -46 -13 -171 -13 -198 0 -214 -6 -250
-88 -13 -29 -24 -57 -24 -62 0 -6 105 -10 278 -10 l279 0 22 24 c19 20 24 44
38 195 10 94 20 171 23 171 3 0 70 -135 149 -300 79 -164 152 -307 163 -317
15 -14 41 -19 110 -22 l90 -3 -7 23 c-4 13 -32 74 -63 134 -93 186 -272 568
-272 581 0 12 96 253 103 261 2 2 32 -31 67 -73 37 -44 77 -82 96 -90 20 -8
70 -14 124 -14 l90 0 0 -550 0 -550 80 0 80 0 0 1040 0 1040 -80 0 -80 0 0
-410z"/>
<path d="M5050 5908 c-48 -25 -90 -89 -90 -138 0 -49 42 -113 90 -137 55 -28
101 -29 156 -2 57 27 84 72 84 139 0 68 -29 116 -84 141 -55 25 -102 24 -156
-3z"/>
<path d="M6500 5585 c0 -140 -4 -255 -9 -255 -5 0 -14 7 -22 16 -42 50 -182
88 -280 74 -153 -21 -262 -123 -326 -305 -26 -75 -28 -90 -28 -250 0 -131 4
-184 17 -233 40 -145 109 -242 206 -289 51 -25 68 -28 157 -28 119 0 167 18
243 89 27 25 52 46 56 46 3 0 6 -15 6 -32 0 -79 -1 -78 131 -78 l119 0 -2 738
-3 737 -95 12 c-52 6 -112 12 -132 12 l-38 1 0 -255z m-103 -376 c12 -4 40
-25 62 -45 l41 -36 0 -243 0 -242 -40 -46 c-98 -111 -224 -115 -297 -7 -35 51
-44 95 -50 240 -7 199 22 307 99 362 50 35 119 41 185 17z"/>
<path d="M1532 5781 c-95 -60 -95 -193 0 -251 66 -40 156 -16 198 52 37 60 17
148 -42 191 -40 29 -115 33 -156 8z"/>
<path d="M7403 5735 c-145 -31 -265 -132 -332 -277 -65 -141 -76 -204 -75
-438 0 -179 3 -215 22 -285 77 -280 250 -425 508 -425 348 0 550 294 530 775
-9 235 -63 397 -171 513 -116 126 -297 177 -482 137z m220 -220 c101 -48 147
-199 147 -486 0 -357 -72 -508 -243 -509 -122 0 -196 76 -234 242 -24 109 -24
425 1 533 21 91 52 159 89 193 56 53 162 65 240 27z"/>
<path d="M8180 5610 l0 -110 200 0 200 0 0 -580 0 -580 140 0 140 0 0 580 0
580 189 0 189 0 11 88 c7 48 14 97 17 110 l4 22 -545 0 -545 0 0 -110z"/>
<path d="M3805 5419 c-75 -7 -212 -37 -269 -59 l-26 -9 32 -88 c17 -48 32 -89
33 -91 1 -1 38 7 81 20 109 31 292 33 343 3 55 -32 75 -67 79 -139 l4 -63
-158 -6 c-225 -8 -333 -43 -417 -137 -124 -138 -95 -377 58 -482 138 -93 396
-69 518 50 37 35 39 36 49 17 22 -39 78 -83 125 -98 107 -34 98 -38 131 61
l29 88 -36 31 -36 30 -5 314 c-6 349 -8 360 -80 442 -83 95 -246 136 -455 116z
m275 -691 c0 -94 -2 -104 -26 -136 -54 -69 -195 -106 -271 -70 -93 45 -99 205
-8 264 49 32 100 43 203 44 l102 0 0 -102z"/>
<path d="M2950 5403 c-91 -31 -152 -88 -211 -196 l-27 -50 -12 59 c-7 32 -18
84 -24 114 l-13 55 -176 3 -177 2 0 -90 0 -90 75 0 75 0 0 -340 0 -339 -72 -3
-73 -3 -3 -92 -3 -93 316 0 316 0 -3 93 -3 92 -102 3 -103 3 0 182 0 183 35
72 c56 117 159 211 233 212 21 0 22 -3 22 -100 l0 -100 88 0 89 0 21 193 c12
105 22 199 22 208 0 38 -202 53 -290 22z"/>
<path d="M4740 5300 l0 -90 145 0 145 0 0 -340 0 -340 -150 0 -150 0 0 -95 0
-95 425 0 425 0 0 95 0 95 -140 0 -140 0 0 430 0 430 -280 0 -280 0 0 -90z"/>
</g>
</svg>
